<svg fill="none" height="25" viewBox="0 0 21 25" width="21" xmlns="http://www.w3.org/2000/svg"><g fill="#ffffff"><path d="m17.924 3.02045c-1.9857-1.94651-4.6245-3.02045-7.4214-3.02045-5.7938 0-10.5026 4.61586-10.5026 10.2953 0 5.5762 9.77577 14.2245 10.1919 14.5911.0842.0723.1949.1136.3055.1136.1158 0 .2212-.0413.3055-.1136.4161-.3666 10.1918-9.0149 10.1918-14.5911.0053-2.74677-1.085-5.32834-3.0707-7.27485zm-7.4214 20.91075c-1.65384-1.5076-9.580854-8.989-9.580854-13.6359 0-5.17861 4.297964-9.391748 9.580854-9.391748 5.283 0 9.5809 4.213138 9.5809 9.391748-.0052 4.6417-7.927 12.1283-9.5809 13.6359z"/><path d="m10.5026 5.45752c-2.47024 0-4.48228 1.97233-4.48228 4.39385 0 2.42153 2.01204 4.38863 4.48228 4.38863 2.4703 0 4.4771-1.9723 4.4771-4.3938 0-2.41635-2.0068-4.38868-4.4771-4.38868zm0 7.87898c-1.95933 0-3.56053-1.5644-3.56053-3.4903 0-1.92586 1.59594-3.49029 3.56053-3.49029 1.9647 0 3.5553 1.56443 3.5553 3.49029 0 1.9259-1.5959 3.4903-3.5553 3.4903z"/></g></svg>