<svg fill="none" height="37" viewBox="0 0 156 37" width="156" xmlns="http://www.w3.org/2000/svg" xmlns:xlink="http://www.w3.org/1999/xlink"><clipPath id="a"><path d="m-.000244 0h156v37h-156z"/></clipPath><g clip-path="url(#a)"><g fill="#0076af"><path d="m8.72148 30.8012c-2.77509 0-5.35197-.3875-7.13596-.9686-.39644 0-.79288-.1937-.79288-.5812v-4.8429c0-.3874.39644-.5811.59466-.5811 1.38755.1937 4.95553.5811 7.13596.5811.99111-.1937 1.38755-.5811 1.38755-1.1623 0-.3874-.19822-.5811-.99111-.9686l-4.95552-2.9057c-3.17154-1.7435-3.96442414-4.0681-3.96442414-6.7801 0-3.48695 1.98221414-6.58643 8.91994414-6.58643 2.7751 0 6.5413.38744 8.1271.96859.3964 0 .5946.19372.5946.58115v4.84289c0 .3875-.1982.5812-.5946.5812-1.9822 0-5.7484-.3874-8.1271-.3874-.59466 0-.79288.1937-.79288.5811 0 .1937.19822.3874 1.18933.9686l4.75735 2.5183c2.9733 1.5498 4.1626 3.6806 4.1626 6.3927 0 3.8743-2.5769 7.7487-9.51462 7.7487z"/><path d="m31.9134 30.801c-5.1537 0-10.5057-1.3561-10.5057-9.6859v-14.14137c0-.38743.3965-.58115.7929-.58115h6.5413c.3964 0 .5947.19372.5947.58115v14.14137c0 2.5183.9911 3.0995 2.5768 3.0995 1.784 0 2.5769-.5812 2.5769-3.0995v-14.14137c0-.38743.1982-.58115.5947-.58115h6.5413c.3964 0 .7929.19372.7929.58115v14.14137c0 8.5236-5.352 9.6859-10.5058 9.6859z"/><path d="m85.4331 30.4134c-1.3876.1937-4.7573.3874-7.5324.3874-4.1627 0-8.92-.9686-8.92-7.5549v-12.5917c0-4.26175 3.568-4.45547 8.92-4.45547 2.9733 0 6.1448.19372 7.5324.38744.3964 0 .5946.19371.5946.58115v4.84288c0 .3875-.3964.5812-.5946.5812h-7.5324c-.7929 0-1.1894.1937-1.1894.9686v1.9372h8.7218c.3964 0 .5946.3874.5946.5811v4.6492c0 .3875-.3964.5812-.5946.5812h-8.7218v1.9372c0 .7748.1983.9685 1.1894.9685h7.5324c.3964 0 .5946.1938.5946.5812v4.8429c0 .5812-.1982.7749-.5946.7749z"/><path d="m102.282 13.9474c0-1.1623-.595-1.7434-2.3788-1.7434h-2.5769v4.2617h2.5769c1.7838 0 2.3788-.7748 2.3788-1.7434zm8.127 16.466h-7.334c-.397 0-.397-.3874-.595-.5812l-3.9643-7.5549h-.9912v7.5549c0 .3875-.3964.5812-.5946.5812h-6.5413c-.3965 0-.7929-.3874-.7929-.5812v-20.72771c0-1.93717.5947-2.51833 2.3787-2.71204 1.3875-.19372 4.1626-.19372 7.3341-.19372 6.7395 0 10.7035 1.93717 10.7035 8.13617v.5811c0 3.4869-1.982 5.4241-3.766 6.199l4.559 8.5235v.3875c.199.1937-.198.3874-.396.3874z"/><path d="m46.1853 9.10449c0-1.93717.5947-2.51833 2.3787-2.71204 1.3875-.19372 4.1626-.19372 7.3341-.19372 4.7573 0 10.704 1.74346 10.704 8.52357v.1937c0 6.7801-5.9467 8.5236-10.5057 8.5236-.5947 0-.9911 0-1.9823 0v6.7801c0 .3874-.3964.5811-.5946.5811h-6.3431c-.3964 0-.5947-.1937-.5947-.5811v-21.11521zm12.6862 5.23041c0-1.5498-1.1894-2.1309-2.7751-2.1309h-1.9823v4.6492h1.9823c1.7839 0 2.7751-.7749 2.7751-2.1309z"/></g><path d="m138.358.193848c-.595 0-.793 0-1.189 0 .991 0 1.784.193717 2.775.387434 9.713 1.937178 15.858 11.429318 13.875 21.308918-1.982 9.8796-11.496 16.466-21.209 14.7225-.397 0-.793-.1937-1.19-.3874 1.586.5811 3.37.7748 5.352.7748 1.784 0 3.37-.1937 4.758-.5811 5.946-1.356 10.902-5.4241 13.28-10.6545.992-2.3246 1.586-4.6492 1.586-7.3612-.396-10.07333-8.523-17.434583-18.038-18.209452z" fill="#6bbfb6"/><path d="m116.157 17.0473c-.792 10.0733 7.136 18.7906 18.039 19.5655-.595 0-1.19-.1937-1.784-.1937-9.713-1.9372-15.858-11.4294-13.876-21.3089 1.982-9.87963 11.497-16.46601 21.011-14.722559-.792-.193717-1.585-.193717-2.378-.38743457-11.101-.77486943-20.219 6.97382357-21.012 17.04709357z" fill="#64c5e4"/><path d="m139.746.387306c-9.713-1.937176-19.228 4.649214-21.21 14.722494-1.982 9.8796 4.163 19.5655 13.875 21.3089 9.713 1.9372 19.228-4.6492 21.21-14.7225 2.18-9.8796-4.163-19.37172-13.875-21.308894zm-3.965 34.869094c-9.514 0-17.047-7.555-17.047-16.6597 0-9.2984 7.731-16.65966 17.047-16.65966 9.515 0 17.047 7.55498 17.047 16.65966 0 9.1047-7.73 16.6597-17.047 16.6597z" fill="#007d8f"/><path d="m135.781 35.2564c-9.316 0-17.047-7.555-17.047-16.6597 0-9.29843 7.533-16.65969 17.047-16.65969 9.317 0 16.849 7.36126 16.849 16.65969 0 9.1047-7.532 16.6597-16.849 16.6597z" fill="#fff"/><path d="m145.098 10.6543h-5.749c-.991 0-1.189.3874-1.189.9686v9.1047c0 2.1309-.793 2.712-2.379 2.712s-2.378-.7748-2.378-2.9057v-8.7173c0-.5812-.199-.9686-1.19-.9686h-5.748v10.8482c0 2.3246.396 3.4869 1.586 4.4555 1.585 1.5497 4.36 2.3246 7.928 2.3246s6.344-.7749 7.929-2.3246c.991-.9686 1.586-2.1309 1.586-4.4555z" fill="#ff1101"/></g></svg>