<svg id="logo-GT" xmlns="http://www.w3.org/2000/svg" width="118" height="32" viewBox="0 0 118 32">
  <rect id="line" width="39.892" height="0.682" transform="translate(0.887 30.714)" fill="#e30613"/>
  <rect id="line-2" data-name="line" width="66.191" height="0.682" transform="translate(51.809 30.714)" fill="#e30613"/>
  <g id="telegramme" transform="translate(0.001 11.45)">
    <path id="Tracé_7" data-name="Tracé 7" d="M17.3,54.107V65.87H13.582V54.107H9.9V50.8H20.981v3.307Z" transform="translate(-9.9 -49.163)" fill="#fff"/>
    <path id="Tracé_8" data-name="Tracé 8" d="M50.01,58.138a1.828,1.828,0,0,0,2.012,1.773,2.859,2.859,0,0,0,2.353-.955l2.08,2.08a5.572,5.572,0,0,1-4.432,1.807c-2.523,0-5.421-.921-5.421-5.8,0-3.716,2.114-5.8,5.08-5.8,3.307,0,5.114,2.421,5.114,5.387v1.534H50.01Zm3.2-3.2a1.713,1.713,0,0,0-3,0,2.221,2.221,0,0,0-.2.886h3.375a2.149,2.149,0,0,0-.17-.891Zm-.546-5.114h-2.08L51.612,46h3.546Z" transform="translate(-35.087 -46)" fill="#fff"/>
    <path id="Tracé_9" data-name="Tracé 9" d="M85.946,65.936A3.293,3.293,0,0,1,82.4,62.561V50.9h3.478V62.322A.612.612,0,0,0,86.56,63h1.193v2.932Z" transform="translate(-59.654 -49.229)" fill="#fff"/>
    <path id="Tracé_10" data-name="Tracé 10" d="M105.81,58.138a1.828,1.828,0,0,0,2.012,1.773,2.859,2.859,0,0,0,2.353-.955l2.08,2.08a5.572,5.572,0,0,1-4.432,1.807c-2.523,0-5.421-.921-5.421-5.8,0-3.716,2.114-5.8,5.08-5.8,3.307,0,5.114,2.421,5.114,5.387v1.534H105.81Zm3.2-3.2a1.713,1.713,0,0,0-3,0,2.221,2.221,0,0,0-.2.886h3.375a2.149,2.149,0,0,0-.171-.891Zm-.546-5.114H106.35L107.378,46h3.546Z" transform="translate(-73.157 -46)" fill="#fff"/>
    <path id="Tracé_11" data-name="Tracé 11" d="M141.9,76.675a5.463,5.463,0,0,1-4.262-1.466l2.148-2.148a2.6,2.6,0,0,0,1.943.716,1.645,1.645,0,0,0,1.841-1.739V71.22a3.211,3.211,0,0,1-2.455.955,3.679,3.679,0,0,1-2.659-1.023c-1.023-1.023-1.057-2.318-1.057-4.364s.034-3.341,1.057-4.364A3.7,3.7,0,0,1,141.15,61.4a3.213,3.213,0,0,1,2.523,1.057v-.921h3.375V72.072C147.049,74.731,145,76.675,141.9,76.675Zm.307-12.206c-1.262,0-1.364,1.091-1.364,2.25s.068,2.25,1.364,2.25c1.262,0,1.364-1.091,1.364-2.25S143.469,64.469,142.207,64.469Z" transform="translate(-96.704 -56.149)" fill="#fff"/>
    <path id="Tracé_12" data-name="Tracé 12" d="M179.437,64.951a1.591,1.591,0,0,0-1.261-.58,1.393,1.393,0,0,0-1.4,1.568v6.819H173.3V61.336h3.375v.921a3.936,3.936,0,0,1,2.694-1.057,3.354,3.354,0,0,1,2.659,1.057Z" transform="translate(-120.833 -56.017)" fill="#fff"/>
    <path id="Tracé_13" data-name="Tracé 13" d="M206.339,72.724V71.8a3.143,3.143,0,0,1-2.523,1.023,3.788,3.788,0,0,1-2.728-1.023,3.714,3.714,0,0,1-.989-2.659c0-1.7,1.159-3.307,3.853-3.307h2.318v-.273c0-1.023-.511-1.432-1.7-1.432a2.127,2.127,0,0,0-1.807.75l-2.148-2.148a5.062,5.062,0,0,1,4.16-1.534c3.239,0,5.012,1.364,5.012,4.126v7.4Zm-.1-4.569H204.5c-.682,0-1.091.375-1.091.921,0,.511.375.955,1.125.955a1.691,1.691,0,0,0,1.364-.409,1.484,1.484,0,0,0,.341-1.125Z" transform="translate(-138.901 -56.017)" fill="#fff"/>
    <path id="Tracé_14" data-name="Tracé 14" d="M247.847,72.724V65.9a1.393,1.393,0,0,0-1.4-1.568,1.373,1.373,0,0,0-1.4,1.568v6.819h-3.478V65.9a1.393,1.393,0,0,0-1.4-1.568,1.373,1.373,0,0,0-1.4,1.568v6.819H235.3V61.336h3.376v.921a3.917,3.917,0,0,1,2.659-1.057,3.474,3.474,0,0,1,2.762,1.193,4.474,4.474,0,0,1,3.2-1.193,3.919,3.919,0,0,1,2.728.989,4.227,4.227,0,0,1,1.262,3.239v7.3Z" transform="translate(-162.774 -56.017)" fill="#fff"/>
    <path id="Tracé_15" data-name="Tracé 15" d="M302.147,72.724V65.9a1.393,1.393,0,0,0-1.4-1.568,1.373,1.373,0,0,0-1.4,1.568v6.819h-3.478V65.9a1.393,1.393,0,0,0-1.4-1.568,1.373,1.373,0,0,0-1.4,1.568v6.819H289.6V61.336h3.375v.921a3.917,3.917,0,0,1,2.659-1.057,3.474,3.474,0,0,1,2.762,1.193,4.473,4.473,0,0,1,3.2-1.193,3.919,3.919,0,0,1,2.728.989,4.227,4.227,0,0,1,1.262,3.239v7.3Z" transform="translate(-199.441 -56.017)" fill="#fff"/>
    <path id="Tracé_16" data-name="Tracé 16" d="M345.81,68.287a1.828,1.828,0,0,0,2.012,1.773,2.859,2.859,0,0,0,2.353-.955l2.08,2.08a5.572,5.572,0,0,1-4.432,1.807c-2.523,0-5.421-.921-5.421-5.8,0-3.716,2.114-5.8,5.08-5.8,3.307,0,5.114,2.421,5.114,5.387v1.534H345.81Zm3.2-3.2a1.713,1.713,0,0,0-3,0,2.222,2.222,0,0,0-.2.886h3.375a2.15,2.15,0,0,0-.17-.891Z" transform="translate(-234.611 -56.149)" fill="#fff"/>
  </g>
  <g id="groupe">
    <path id="Tracé_1" data-name="Tracé 1" d="M12.591,19.442a3.185,3.185,0,0,1-2.455-.886L11.193,17.5a1.676,1.676,0,0,0,1.33.511,1.274,1.274,0,0,0,1.364-1.4V15.93a2.044,2.044,0,0,1-1.6.682,2.25,2.25,0,0,1-1.6-.58c-.648-.648-.682-1.5-.682-2.694a3.5,3.5,0,0,1,.682-2.659,2.25,2.25,0,0,1,1.6-.58,1.948,1.948,0,0,1,1.637.716v-.648h1.637V16.68a2.744,2.744,0,0,1-2.97,2.762Zm.17-7.876c-.989,0-1.091.852-1.091,1.739s.1,1.773,1.091,1.773,1.125-.852,1.125-1.773c0-.887-.136-1.739-1.124-1.739Z" transform="translate(-9.965 -10.031)" fill="#fff"/>
    <path id="Tracé_2" data-name="Tracé 2" d="M35.548,11.909a1.1,1.1,0,0,0-.886-.409,1.114,1.114,0,0,0-1.091,1.227v4.091H31.9v-6.75h1.637v.648a2.336,2.336,0,0,1,1.7-.716,2.061,2.061,0,0,1,1.6.648Z" transform="translate(-24.398 -9.965)" fill="#fff"/>
    <path id="Tracé_3" data-name="Tracé 3" d="M52.144,16.069a3.1,3.1,0,0,1-4.194,0,3.422,3.422,0,0,1-.75-2.625,3.564,3.564,0,0,1,.75-2.625A2.744,2.744,0,0,1,50.03,10a2.887,2.887,0,0,1,2.114.818,3.422,3.422,0,0,1,.75,2.625A3.564,3.564,0,0,1,52.144,16.069Zm-1.33-4.262a1.155,1.155,0,0,0-1.568,0,2.3,2.3,0,0,0-.375,1.637,2.3,2.3,0,0,0,.375,1.637,1.155,1.155,0,0,0,1.568,0,2.349,2.349,0,0,0,.375-1.637A2.145,2.145,0,0,0,50.814,11.807Z" transform="translate(-34.482 -9.965)" fill="#fff"/>
    <path id="Tracé_4" data-name="Tracé 4" d="M72.355,16.951v-.614a2.271,2.271,0,0,1-1.671.716,2.194,2.194,0,0,1-1.6-.58,2.506,2.506,0,0,1-.682-1.909V10.2h1.671v4.091a1.129,1.129,0,1,0,2.25,0V10.2h1.671v6.751Z" transform="translate(-48.453 -10.097)" fill="#fff"/>
    <path id="Tracé_5" data-name="Tracé 5" d="M95.344,16.274a2.356,2.356,0,0,1-1.637.614,1.964,1.964,0,0,1-1.637-.682v3.069H90.4V10.068h1.637v.648A2.058,2.058,0,0,1,93.707,10a2.356,2.356,0,0,1,1.637.614,3.977,3.977,0,0,1,.682,2.83C96.026,14.432,96.026,15.626,95.344,16.274ZM93.23,11.5c-1.023,0-1.125.818-1.125,1.943s.136,1.943,1.125,1.943c1.023,0,1.125-.852,1.125-1.943S94.219,11.5,93.23,11.5Z" transform="translate(-62.952 -9.965)" fill="#fff"/>
    <path id="Tracé_6" data-name="Tracé 6" d="M112.271,13.889a1.4,1.4,0,0,0,1.466,1.5,1.847,1.847,0,0,0,1.534-.648l1.023.989a3.237,3.237,0,0,1-2.557,1.057c-1.6,0-3.137-.716-3.137-3.444,0-2.216,1.193-3.444,2.932-3.444,1.875,0,2.932,1.364,2.932,3.239v.75Zm2.421-1.875a1.242,1.242,0,0,0-2.25,0,2.445,2.445,0,0,0-.17.716h2.557a1.781,1.781,0,0,0-.138-.716Z" transform="translate(-76.265 -9.899)" fill="#fff"/>
  </g>
</svg>
