<svg xmlns="http://www.w3.org/2000/svg" xmlns:xlink="http://www.w3.org/1999/xlink" width="300" height="100" viewBox="0 0 223 65">
  <defs>
    <clipPath id="clip-iPhone_XR_XS_Max_11_25">
      <rect width="223" height="65"></rect>
    </clipPath>
  </defs>
  <g id="iPhone_XR_XS_Max_11_25" data-name="iPhone XR, XS Max, 11 – 25" clip-path="url(#clip-iPhone_XR_XS_Max_11_25)">
    <g id="Groupe_273" data-name="Groupe 273" transform="translate(-31 -35)">
      <path id="Tracé_1530" data-name="Tracé 1530" d="M2.16-10.372V-22.384H5.112V-13h5.044v2.632Zm11.86-3.644a1.34,1.34,0,0,0,.43,1,1.622,1.622,0,0,0,1.173.413,2.7,2.7,0,0,0,1.08-.169,2.825,2.825,0,0,0,.793-.59L19.149-11.7a5.09,5.09,0,0,1-1.527,1.088,4.982,4.982,0,0,1-2,.346,4.772,4.772,0,0,1-3.1-.987Q11.3-12.245,11.3-14.91a4.873,4.873,0,0,1,1.122-3.408A3.794,3.794,0,0,1,15.37-19.55a3.8,3.8,0,0,1,2.995,1.223,4.461,4.461,0,0,1,1.088,3.079v1.232Zm2.548-2.548a1.2,1.2,0,0,0-.43-.523,1.371,1.371,0,0,0-.768-.186,1.375,1.375,0,0,0-.768.194,1.192,1.192,0,0,0-.439.506,1.7,1.7,0,0,0-.143.717h2.7a2.1,2.1,0,0,0-.025-.38A1.4,1.4,0,0,0,16.568-16.564ZM30.25-19.752v9.38H27.3v-9.38H24.345v-2.632H33.2v2.632Zm6.816,5.736a1.34,1.34,0,0,0,.43,1,1.622,1.622,0,0,0,1.173.413,2.7,2.7,0,0,0,1.08-.169,2.825,2.825,0,0,0,.793-.59L42.2-11.7a5.09,5.09,0,0,1-1.527,1.088,4.982,4.982,0,0,1-2,.346,4.772,4.772,0,0,1-3.1-.987q-1.223-.987-1.223-3.653a4.873,4.873,0,0,1,1.122-3.408,3.794,3.794,0,0,1,2.944-1.232,3.8,3.8,0,0,1,2.995,1.223A4.461,4.461,0,0,1,42.5-15.248v1.232Zm2.548-2.548a1.2,1.2,0,0,0-.43-.523,1.371,1.371,0,0,0-.768-.186,1.375,1.375,0,0,0-.768.194,1.192,1.192,0,0,0-.439.506,1.7,1.7,0,0,0-.143.717h2.7a2.1,2.1,0,0,0-.025-.38A1.4,1.4,0,0,0,39.614-16.564Zm-.439-4.1H37.5l.827-3.037h2.834Zm7.744,10.291a2.667,2.667,0,0,1-2.109-.8,2.749,2.749,0,0,1-.709-1.881v-9.33h2.767v9.127a.492.492,0,0,0,.557.557h.962v2.328Zm5.331-3.644a1.34,1.34,0,0,0,.43,1,1.622,1.622,0,0,0,1.173.413,2.7,2.7,0,0,0,1.08-.169,2.825,2.825,0,0,0,.793-.59L57.379-11.7a5.09,5.09,0,0,1-1.527,1.088,4.982,4.982,0,0,1-2,.346,4.772,4.772,0,0,1-3.1-.987q-1.223-.987-1.223-3.653a4.873,4.873,0,0,1,1.122-3.408A3.794,3.794,0,0,1,53.6-19.55a3.8,3.8,0,0,1,2.995,1.223,4.461,4.461,0,0,1,1.088,3.079v1.232ZM54.8-16.564a1.2,1.2,0,0,0-.43-.523,1.371,1.371,0,0,0-.768-.186,1.375,1.375,0,0,0-.768.194,1.192,1.192,0,0,0-.439.506,1.7,1.7,0,0,0-.143.717h2.7a2.1,2.1,0,0,0-.025-.38A1.4,1.4,0,0,0,54.8-16.564Zm-.439-4.1h-1.67l.827-3.037H56.35ZM62.643-7.335a6.445,6.445,0,0,1-1.94-.253,3.641,3.641,0,0,1-1.468-.928l1.721-1.721a1.811,1.811,0,0,0,.692.439,2.606,2.606,0,0,0,.86.135,1.37,1.37,0,0,0,1.122-.422,1.475,1.475,0,0,0,.346-.962V-11.7a2.649,2.649,0,0,1-1.957.759,2.709,2.709,0,0,1-2-.683,2.784,2.784,0,0,1-.827-1.434,12.484,12.484,0,0,1-.143-2.185,12.976,12.976,0,0,1,.135-2.219,2.754,2.754,0,0,1,.827-1.392,2.744,2.744,0,0,1,2.025-.692,2.815,2.815,0,0,1,1.13.194,3.037,3.037,0,0,1,.894.65v-.742h2.682v8.419A3.458,3.458,0,0,1,65.62-8.373,4.212,4.212,0,0,1,62.643-7.335Zm.253-9.718a.959.959,0,0,0-.8.354,2.56,2.56,0,0,0-.278,1.451,2.688,2.688,0,0,0,.262,1.468.97.97,0,0,0,.818.337.959.959,0,0,0,.8-.354,2.56,2.56,0,0,0,.278-1.451,2.688,2.688,0,0,0-.262-1.468A.97.97,0,0,0,62.9-17.053Zm10.814.472a2.009,2.009,0,0,0-.456-.354,1.127,1.127,0,0,0-.54-.118.992.992,0,0,0-.827.363,1.384,1.384,0,0,0-.287.886v5.432H68.834v-9.077h2.7v.742a2.926,2.926,0,0,1,.919-.6,3.046,3.046,0,0,1,1.223-.245,3.283,3.283,0,0,1,1.164.186,2.777,2.777,0,0,1,.962.658Zm7.541,6.209v-.742a2.96,2.96,0,0,1-.877.633,2.866,2.866,0,0,1-1.147.194,2.7,2.7,0,0,1-1.957-.59,3.366,3.366,0,0,1-.8-1.147,3.354,3.354,0,0,1-.211-1.2,2.516,2.516,0,0,1,.776-1.873,3.18,3.18,0,0,1,2.311-.759h1.839v-.236a1.076,1.076,0,0,0-.312-.869,1.654,1.654,0,0,0-1.054-.262,2.066,2.066,0,0,0-.81.127,2.252,2.252,0,0,0-.641.481l-1.721-1.721a3.912,3.912,0,0,1,1.417-.945,5.6,5.6,0,0,1,1.89-.27q4,0,4,3.29v5.888Zm-.067-3.644h-1.4a.952.952,0,0,0-.641.2.657.657,0,0,0-.236.523.708.708,0,0,0,.236.54.956.956,0,0,0,.675.219,2.6,2.6,0,0,0,.658-.059,1.212,1.212,0,0,0,.456-.3,1.213,1.213,0,0,0,.253-.894Zm14.695,3.644V-15.8a1.166,1.166,0,0,0-.354-.97,1.207,1.207,0,0,0-.759-.278,1.207,1.207,0,0,0-.759.278,1.166,1.166,0,0,0-.354.97v5.432H90.885V-15.8a1.166,1.166,0,0,0-.354-.97,1.207,1.207,0,0,0-.759-.278,1.207,1.207,0,0,0-.759.278,1.166,1.166,0,0,0-.354.97v5.432H85.891v-9.077h2.7v.742a2.8,2.8,0,0,1,.962-.616A3.089,3.089,0,0,1,90.7-19.55a2.8,2.8,0,0,1,2.21.962A4.038,4.038,0,0,1,94.1-19.33a3.9,3.9,0,0,1,1.375-.219,3.674,3.674,0,0,1,1.232.2,2.756,2.756,0,0,1,1.038.666,2.871,2.871,0,0,1,.683,1.08,4.242,4.242,0,0,1,.219,1.426v5.8Zm14.762,0V-15.8a1.166,1.166,0,0,0-.354-.97,1.207,1.207,0,0,0-.759-.278,1.207,1.207,0,0,0-.759.278,1.166,1.166,0,0,0-.354.97v5.432h-2.767V-15.8a1.166,1.166,0,0,0-.354-.97,1.207,1.207,0,0,0-.759-.278,1.207,1.207,0,0,0-.759.278,1.166,1.166,0,0,0-.354.97v5.432h-2.767v-9.077h2.7v.742a2.8,2.8,0,0,1,.962-.616,3.089,3.089,0,0,1,1.147-.228,2.8,2.8,0,0,1,2.21.962,4.038,4.038,0,0,1,1.189-.742,3.9,3.9,0,0,1,1.375-.219,3.674,3.674,0,0,1,1.232.2,2.756,2.756,0,0,1,1.038.666,2.871,2.871,0,0,1,.683,1.08,4.242,4.242,0,0,1,.219,1.426v5.8Zm7.086-3.644a1.34,1.34,0,0,0,.43,1,1.622,1.622,0,0,0,1.173.413,2.7,2.7,0,0,0,1.08-.169,2.825,2.825,0,0,0,.793-.59l1.653,1.653a5.09,5.09,0,0,1-1.527,1.088,4.982,4.982,0,0,1-2,.346,4.772,4.772,0,0,1-3.1-.987q-1.223-.987-1.223-3.653a4.873,4.873,0,0,1,1.122-3.408,3.794,3.794,0,0,1,2.944-1.232,3.8,3.8,0,0,1,2.995,1.223,4.461,4.461,0,0,1,1.088,3.079v1.232Zm2.548-2.548a1.2,1.2,0,0,0-.43-.523,1.371,1.371,0,0,0-.768-.186,1.375,1.375,0,0,0-.768.194,1.192,1.192,0,0,0-.439.506,1.7,1.7,0,0,0-.143.717h2.7a2.1,2.1,0,0,0-.025-.38A1.4,1.4,0,0,0,120.274-16.564Z" transform="translate(97.915 67.118)" fill="#505050"></path>
      <rect id="Rectangle_212" data-name="Rectangle 212" width="39" height="39" transform="translate(37 41)" fill="#f04161"></rect>
      <rect id="Rectangle_213" data-name="Rectangle 213" width="39" height="39" transform="translate(47 52)" fill="#e0001b"></rect>
      <path id="Tracé_1529" data-name="Tracé 1529" d="M-126.248-14.358h12.405l.677-5.417h-1.064l-.048.459c-.29,2.249-1.257,3.893-4.038,3.893h-1.644l1.789-14.557h2.491l.121-1.064h-8.633l-.145,1.064h1.644l-1.765,14.557H-126.1ZM-107-16.2c-1.233,0-1.548-1.572-1.209-4.643.411-3.385,1.112-5.054,2.515-5.054,1.185,0,1.644,1.233,1.33,4.111-.024.073-.193,1.427-.218,1.5C-104.871-17.961-105.6-16.2-107-16.2Zm-1.838,2.249c2.3,0,3.748-1.548,4.522-3.942l-.048.7c-.048,2.2.895,3.216,2.708,3.216,2.708,0,3.313-1.548,3.676-4.038h-1.137c-.242,1.717-.556,2.418-1.04,2.418-.411,0-.532-.484-.435-1.306l1.233-10.132h-1.451l-1.475,1.91a4.225,4.225,0,0,0-3.724-1.91c-4.038,0-6.36,3.144-6.771,6.529C-113.238-16.559-111.666-13.947-108.837-13.947Zm35.692-.024c2.829,0,3.458-1.62,3.821-4.038h-1.161c-.218,1.669-.556,2.418-1.064,2.418-.387,0-.508-.435-.411-1.306l.677-5.562c.314-2.757-.677-4.57-3.313-4.57a4.067,4.067,0,0,0-3.748,2.08,2.923,2.923,0,0,0-3.1-2.08,4.15,4.15,0,0,0-4.111,2.878l.314-2.539-.725-.242a19.636,19.636,0,0,1-4.57.314l-.121,1.064h1.644l-1.378,11.2h4.377l.871-6.892c.339-2.757.943-3.845,1.886-3.845.846,0,.967.846.8,2.152l-1.088,8.585h4.4L-78.2-21.9c.363-2.273.943-3.192,1.789-3.192.8,0,.967.822.822,2.152l-.6,4.788C-76.578-15.084-75.321-13.971-73.145-13.971Zm9.818-2.225c-1.233,0-1.548-1.572-1.209-4.643.411-3.385,1.112-5.054,2.515-5.054,1.185,0,1.644,1.233,1.33,4.111-.024.073-.193,1.427-.218,1.5C-61.2-17.961-61.924-16.2-63.327-16.2Zm-1.838,2.249c2.3,0,3.748-1.548,4.522-3.942l-.048.7c-.048,2.2.895,3.216,2.708,3.216,2.708,0,3.313-1.548,3.676-4.038h-1.137c-.242,1.717-.556,2.418-1.04,2.418-.411,0-.532-.484-.435-1.306l1.233-10.132h-1.451l-1.475,1.91a4.225,4.225,0,0,0-3.724-1.91c-4.038,0-6.36,3.144-6.771,6.529C-69.566-16.559-67.994-13.947-65.165-13.947Zm16.008,0c3.023,0,3.8-1.693,4.159-4.595h-1.064c-.29,2.442-.8,3.265-1.669,3.265-.774,0-1.112-.484-.919-1.935l.991-8.343h3.337l.145-1.064h-3.337l.556-4.329H-48a5.684,5.684,0,0,1-5.973,4.5l-.121.895h2.055l-.919,7.5C-53.291-15.18-51.865-13.947-49.156-13.947Zm9.092-14.316a2.5,2.5,0,0,0,2.757-2.394,2.086,2.086,0,0,0-2.321-2.152,2.512,2.512,0,0,0-2.781,2.418A2.089,2.089,0,0,0-40.064-28.263Zm-.048,14.291c2.66,0,3.289-1.62,3.651-4.038h-1.161c-.193,1.669-.556,2.418-1.064,2.418-.435,0-.508-.459-.435-1.185l1.233-9.915-.725-.242a27.5,27.5,0,0,1-5.344.314l-.121,1.064h1.644l-.895,7.4C-43.691-15.084-42.458-13.971-40.112-13.971Zm15.621,0c2.829,0,3.482-1.62,3.821-4.063h-1.161c-.193,1.669-.532,2.442-1.04,2.442-.411,0-.532-.435-.435-1.306l.677-5.562c.314-2.733-.677-4.57-3.434-4.57a4.531,4.531,0,0,0-4.4,3l.339-2.66-.725-.242a19.636,19.636,0,0,1-4.57.314l-.121,1.064H-33.9l-1.378,11.2H-30.9l.846-6.819c.339-2.708,1.161-3.917,2.152-3.917s1.137.871.967,2.152l-.6,4.788C-27.925-15.084-26.667-13.971-24.491-13.971Zm9.842-2.225c-1.233,0-1.548-1.572-1.209-4.643.411-3.385,1.112-5.054,2.515-5.054,1.185,0,1.644,1.233,1.33,4.111-.024.073-.193,1.427-.218,1.5C-12.521-17.961-13.246-16.2-14.649-16.2Zm-1.838,2.249c2.3,0,3.748-1.548,4.522-3.942l-.048.7c-.048,2.2.895,3.216,2.708,3.216,2.708,0,3.313-1.548,3.676-4.038H-6.766c-.242,1.717-.556,2.418-1.04,2.418-.411,0-.532-.484-.435-1.306L-7.007-27.03H-8.458l-1.475,1.91a4.225,4.225,0,0,0-3.724-1.91c-4.038,0-6.36,3.144-6.771,6.529C-20.888-16.559-19.316-13.947-16.487-13.947Zm15.307-.024c2.66,0,3.313-1.62,3.651-4.063H1.335C1.118-16.365.779-15.592.3-15.592s-.532-.459-.459-1.185l1.91-15.718-.725-.218a28.465,28.465,0,0,1-5.344.29l-.121,1.064H-2.8l-1.6,13.2C-4.758-15.084-3.5-13.971-1.18-13.971Zm9.915.024a5.359,5.359,0,0,0,5.538-4.232L13.112-18.3c-.508,1.765-1.572,3-3.265,3-2.007,0-2.515-1.741-2.346-4.256,4.57-.048,7.375-1.451,7.424-3.99,0-2.007-1.765-3.482-4.643-3.482a7.138,7.138,0,0,0-7.23,6.5C2.617-16.68,4.89-13.947,8.735-13.947ZM7.574-20.67c.387-3.361,1.088-5.247,2.249-5.247.629,0,.919.58.895,1.475C10.694-22.459,9.92-20.863,7.574-20.67Z" transform="translate(224.969 99.223)" fill="#161616"></path>
      <path id="Tracé_1528" data-name="Tracé 1528" d="M10.661-29.341v14.7H6.035v-14.7H1.41v-4.123H15.286v4.123Z" transform="translate(57.753 96.135)" fill="#fff"></path>
    </g>
  </g>
</svg>